<svg width="24" height="25" viewBox="0 0 24 25" fill="none" xmlns="http://www.w3.org/2000/svg">
<path fill-rule="evenodd" clip-rule="evenodd" d="M11.9929 4.21691C9.65298 2.17202 6.19252 1.75356 3.50521 4.04965C0.598423 6.53328 0.176093 10.7161 2.47471 13.6739C3.51793 15.0163 5.76496 17.1828 7.68698 18.9631C8.66084 19.8651 9.57226 20.6869 10.24 21.2831C10.574 21.5814 10.8473 21.8234 11.0373 21.991C11.1324 22.0748 11.2066 22.1401 11.2572 22.1845L11.3339 22.2517L11.3349 22.2526C11.335 22.2527 11.3353 22.253 11.9933 21.4999L11.3349 22.2526L11.9933 22.8279L12.6512 22.253L11.9933 21.4999C12.6512 22.253 12.6512 22.253 12.6512 22.253L12.7294 22.1845C12.78 22.1401 12.8542 22.0748 12.9492 21.991C13.1392 21.8234 13.4126 21.5814 13.7465 21.2831C14.4143 20.6869 15.3257 19.8651 16.2996 18.9631C18.2216 17.1828 20.4686 15.0163 21.5118 13.6739C23.8016 10.7275 23.4445 6.51238 20.4709 4.04088C17.7537 1.78246 14.3301 2.17124 11.9929 4.21691ZM11.9933 20.1663C11.8675 20.0547 11.7264 19.9291 11.572 19.7913C10.9105 19.2006 10.0085 18.3872 9.04603 17.4958C7.09537 15.689 4.97793 13.6357 4.05392 12.4467C2.41807 10.3417 2.7011 7.36733 4.80441 5.57021C6.818 3.84975 9.52828 4.29238 11.2333 6.28575L11.9933 7.17416L12.7532 6.28575C14.4507 4.30119 17.1256 3.86105 19.1925 5.57898C21.3152 7.34319 21.5773 10.3303 19.9326 12.4467C19.0086 13.6357 16.8912 15.689 14.9405 17.4958C13.978 18.3872 13.0761 19.2006 12.4145 19.7913C12.2602 19.9291 12.119 20.0547 11.9933 20.1663Z" fill="#FCFCFC"/>
</svg>
