<svg width="114" height="30" viewBox="0 0 114 30" fill="none" xmlns="http://www.w3.org/2000/svg">
<circle cx="14.5" cy="14.5364" r="14.5" fill="#FCFCFC"/>
<g style="mix-blend-mode:exclusion">
<path d="M5.72 6.75275L9.944 18.2248L10.448 20.0248L10.928 18.2248L15.152 6.75275H18.392L12.248 23.0728H8.456L2.288 6.75275H5.72ZM20.1035 8.76875V5.79275H23.1755V8.76875H20.1035ZM20.1035 23.0728V10.2088H23.1755V23.0728H20.1035ZM25.9863 23.0728V10.2088H29.0583V11.9368C29.8983 10.5448 31.2423 9.84875 32.8743 9.84875C35.4423 9.84875 37.1943 11.3848 37.1943 14.5048V23.0728H34.1223V15.1288C34.1223 13.3768 33.3783 12.3928 31.8183 12.3928C30.1143 12.3928 29.0583 13.8808 29.0583 15.6088V23.0728H25.9863ZM40.7823 28.7128C40.1583 28.7128 39.5103 28.5448 39.1983 28.4248V26.0728H39.9183C41.3103 26.0728 41.9583 25.7848 42.9423 23.3368L43.2543 22.5448L38.1903 10.2088H41.4783L44.3343 17.6728L44.8623 19.5448L45.3903 17.6728L48.1263 10.2088H51.2703L45.6063 24.3448C44.2863 27.6808 43.1343 28.7128 40.7823 28.7128ZM52.7988 23.0728V5.79275H55.8708V23.0728H52.7988ZM61.6576 14.4328H58.5616C58.9696 11.5768 61.0576 9.84875 64.2976 9.84875C67.8736 9.84875 69.6976 11.9608 69.6976 14.9368V19.9288C69.6976 21.5128 69.8416 22.4008 70.0816 23.0728H66.8896C66.7216 22.6408 66.6496 22.0168 66.6256 21.3208C65.5696 22.8088 63.9856 23.4328 62.4496 23.4328C59.9296 23.4328 58.1296 22.1848 58.1296 19.7128C58.1296 17.9608 59.1136 16.6408 61.0816 15.9928C62.7856 15.4168 64.4416 15.2728 66.6016 15.2488V14.9368C66.6016 13.2808 65.8096 12.3928 64.1056 12.3928C62.6416 12.3928 61.8496 13.2088 61.6576 14.4328ZM61.2256 19.5448C61.2256 20.5288 61.9936 21.1528 63.2416 21.1528C65.1376 21.1528 66.6016 19.6168 66.6016 17.6968V17.1448C62.2336 17.2168 61.2256 18.2488 61.2256 19.5448Z" fill="#FCFCFC"/>
</g>
</svg>
