<svg width="24" height="24" viewBox="0 0 24 24" fill="none" xmlns="http://www.w3.org/2000/svg">
<g id="star">
<path id="Icon" fill-rule="evenodd" clip-rule="evenodd" d="M12.0002 1.5L15.1454 9.28028L23.4276 9.79244L17.2155 15.4266L19.3144 23.2142L12.0001 19.0787L4.68553 23.2141L6.7844 15.4266L0.572266 9.79244L8.85456 9.28028L12.0002 1.5ZM12 6.83607L10.2362 11.1987L5.42761 11.496L9.03366 14.7666L7.8598 19.122L12.0001 16.7812L16.1401 19.1219L14.9662 14.7666L18.5723 11.496L13.7636 11.1987L12 6.83607Z" fill="#FCFCFC"/>
<path id="Vector 1" d="M7.77576 19.1555C8.03928 19.1262 8.46059 18.5708 8.64683 18.3845C9.04226 17.9891 9.4766 17.6059 9.89837 17.2376C10.4552 16.7513 10.8498 16.0957 11.4291 15.6323C11.7724 15.3576 11.7537 15.7554 12.0221 16.0116C12.79 16.7446 13.8316 17.2458 14.7944 17.6737C14.9448 17.7405 15.7419 18.3335 15.661 18.1654C15.2229 17.2555 14.4961 16.4 13.8732 15.61C13.4725 15.1017 12.9653 14.7671 12.3169 14.69C11.2194 14.5595 9.76034 14.6385 9.63693 15.8726C9.60635 16.1784 9.32495 16.3492 9.18193 16.5923C9.08016 16.7653 9.39249 16.2428 9.4378 16.0472C9.52437 15.6736 9.62818 15.3023 9.6781 14.9214C9.73984 14.4502 10.1499 13.1797 9.35659 13.1492C9.09527 13.1392 7.49212 13.2785 7.41643 12.9379C7.35756 12.6729 7.04304 12.6675 6.77453 12.6675C6.34491 12.6675 6.62745 12.6172 6.47528 12.3382C6.44531 12.2833 6.36472 12.2628 6.33844 12.207C6.32946 12.1879 7.30627 12.1661 7.40419 12.1625C8.61111 12.1175 9.81304 12.1469 11.0197 12.1469C11.5263 12.1469 11.5804 12.088 11.5804 11.762C11.5804 11.3086 11.5604 10.8445 11.5604 10.3869C11.5604 9.95132 11.7301 9.74424 11.8641 9.36235C12.0303 8.88861 12.1297 8.32167 12.1411 7.81712C12.1444 7.67251 12.1842 7.65658 12.2012 7.80933C12.2839 8.55377 12.4549 9.27142 12.6529 9.99424C12.9497 11.0781 13.2825 12.1211 13.2825 13.2438C13.2825 13.3385 13.9121 12.9573 13.9589 12.9323C14.3831 12.7056 14.3187 12.9747 14.524 13.3083C14.5891 13.4141 14.5766 13.6017 14.6742 13.6776C14.817 13.7887 15.3923 13.1812 15.4841 13.1103C16.1301 12.6111 16.8854 12.1722 17.5978 11.7764C17.7989 11.6647 16.3979 11.7245 16.1861 11.7308C15.6267 11.7475 15.0808 11.6262 14.5441 11.6262" stroke="#FCFCFC" stroke-width="3" stroke-linecap="round"/>
</g>
</svg>
