<svg width="43" height="42" viewBox="0 0 43 42" fill="none" xmlns="http://www.w3.org/2000/svg">
<g id="trash">
<path id="Vector" d="M10.5391 10.5L12.1736 33.3742C12.205 33.8153 12.4021 34.2281 12.7255 34.5297C13.0489 34.8313 13.4744 34.9993 13.9166 35H28.1581C28.6005 34.9998 29.0265 34.832 29.3502 34.5303C29.674 34.2287 29.8714 33.8156 29.9028 33.3742L31.5391 10.5M35.0391 10.5H7.03906M14.9141 10.5L15.8661 7.644C16.0982 6.94706 16.5437 6.34083 17.1395 5.91116C17.7353 5.4815 18.4512 5.25019 19.1858 5.25H22.8906C23.6254 5.24982 24.3417 5.48096 24.9379 5.91065C25.5341 6.34034 25.9798 6.94678 26.2121 7.644L27.1641 10.5" stroke="#FCFCFC" stroke-width="2" stroke-linecap="round" stroke-linejoin="round"/>
</g>
</svg>
