<svg width="24" height="24" viewBox="0 0 24 24" fill="none" xmlns="http://www.w3.org/2000/svg">
<g clip-path="url(#clip0_279_782)">
<mask id="mask0_279_782" style="mask-type:luminance" maskUnits="userSpaceOnUse" x="0" y="0" width="24" height="24">
<path d="M24 0L0 0L0 24H24V0Z" fill="white"/>
</mask>
<g mask="url(#mask0_279_782)">
<path d="M23.0349 12.764L23.0349 12.764L16.7908 15.9926C16.7907 15.9926 16.7907 15.9926 16.7907 15.9926C16.4484 16.1695 16.1695 16.4484 15.9926 16.7907C15.9926 16.7907 15.9926 16.7907 15.9926 16.7908L12.764 23.0349L12.764 23.0349C12.4434 23.655 11.5566 23.655 11.236 23.0349L10.7918 23.2645L11.236 23.0349L8.00739 16.7907C8.00738 16.7907 8.00737 16.7907 8.00736 16.7907C7.83041 16.4484 7.55157 16.1695 7.20935 15.9926L0.96508 12.764L0.735436 13.2082L0.965077 12.764C0.344979 12.4434 0.344969 11.5566 0.965081 11.236L7.20937 8.00736L7.20938 8.00736C7.55159 7.83041 7.83041 7.55159 8.00736 7.20938L8.00736 7.20937L11.236 0.965081C11.5566 0.344969 12.4434 0.344979 12.764 0.965077L13.2082 0.735436L12.764 0.96508L15.9926 7.20935C16.1695 7.55157 16.4484 7.83041 16.7907 8.00736C16.7907 8.00737 16.7907 8.00738 16.7907 8.00739L23.0349 11.236L23.2507 10.8185L23.0349 11.236C23.655 11.5566 23.655 12.4434 23.0349 12.764Z" stroke="#111111"/>
</g>
</g>
<defs>
<clipPath id="clip0_279_782">
<rect width="24" height="24" fill="white"/>
</clipPath>
</defs>
</svg>
