<svg width="34" height="34" viewBox="0 0 34 34" fill="none" xmlns="http://www.w3.org/2000/svg">
<path fill-rule="evenodd" clip-rule="evenodd" d="M25.7899 2.78833C24.9965 2.47833 24.1082 2.42667 22.9699 2.41833C22.7335 1.91912 22.3602 1.4973 21.8934 1.20195C21.4266 0.906608 20.8856 0.749878 20.3332 0.75H13.6665C13.1144 0.749729 12.5734 0.90621 12.1067 1.20125C11.6399 1.49629 11.2665 1.91776 11.0299 2.41667C9.88988 2.42667 9.00321 2.47833 8.20988 2.78833C7.26283 3.15879 6.4392 3.78835 5.83321 4.605C5.22155 5.42667 4.93321 6.48333 4.53988 7.935L3.49321 11.7733C2.83757 12.1041 2.26284 12.5753 1.80988 13.1533C0.773213 14.4817 0.58988 16.0633 0.77488 17.8767C0.953213 19.6367 1.50821 21.8533 2.20155 24.6267L2.24488 24.805C2.68488 26.5583 3.03988 27.9833 3.46321 29.095C3.90488 30.255 4.46655 31.205 5.38988 31.9267C6.31488 32.6483 7.37321 32.96 8.60488 33.11C9.78488 33.25 11.2549 33.25 13.0632 33.25H20.9365C22.7449 33.25 24.2132 33.25 25.3949 33.1083C26.6282 32.9617 27.6849 32.6483 28.6082 31.925C29.5332 31.205 30.0932 30.255 30.5349 29.095C30.9599 27.9833 31.3149 26.5583 31.7532 24.8033L31.7982 24.6283C32.4915 21.8533 33.0449 19.6367 33.2249 17.8783C33.4082 16.0617 33.2249 14.4817 32.1882 13.1533C31.7357 12.5755 31.1616 12.1043 30.5065 11.7733L29.4599 7.935C29.0649 6.48333 28.7765 5.42667 28.1665 4.60333C27.5603 3.7873 26.7367 3.15833 25.7899 2.78833ZM9.11988 5.11667C9.48655 4.97333 9.92988 4.93167 11.0315 4.92C11.5015 5.90333 12.5049 6.58333 13.6649 6.58333H20.3315C21.4949 6.58333 22.4982 5.90333 22.9682 4.92C24.0699 4.93167 24.5132 4.97333 24.8799 5.11667C25.3899 5.31667 25.8332 5.655 26.1599 6.095C26.4532 6.49 26.6249 7.04167 27.1099 8.82L27.6999 10.9817C25.9699 10.75 23.7365 10.75 20.9615 10.75H13.0365C10.2632 10.75 8.02988 10.75 6.29988 10.9817L6.88988 8.82C7.37321 7.04167 7.54655 6.49 7.83988 6.095C8.16623 5.65518 8.60982 5.31613 9.11988 5.11667ZM13.6665 3.25C13.556 3.25 13.4501 3.2939 13.3719 3.37204C13.2938 3.45018 13.2499 3.55616 13.2499 3.66667C13.2499 3.77717 13.2938 3.88315 13.3719 3.9613C13.4501 4.03944 13.556 4.08333 13.6665 4.08333H20.3332C20.4437 4.08333 20.5497 4.03944 20.6278 3.9613C20.706 3.88315 20.7499 3.77717 20.7499 3.66667C20.7499 3.55616 20.706 3.45018 20.6278 3.37204C20.5497 3.2939 20.4437 3.25 20.3332 3.25H13.6665ZM3.78155 14.6917C4.24655 14.0967 4.98155 13.6967 6.49821 13.4767C8.04988 13.2533 10.1532 13.25 13.1415 13.25H20.8582C23.8465 13.25 25.9482 13.2533 27.4999 13.4767C29.0182 13.6967 29.7532 14.0967 30.2182 14.6933C30.6832 15.2883 30.8932 16.0967 30.7365 17.6233C30.5782 19.1833 30.0715 21.2233 29.3465 24.1233C28.8849 25.97 28.5632 27.25 28.1999 28.2067C27.8465 29.13 27.5015 29.6183 27.0699 29.9567C26.6382 30.2933 26.0799 30.5083 25.0982 30.6267C24.0815 30.7483 22.7649 30.75 20.8582 30.75H13.1415C11.2349 30.75 9.91655 30.7483 8.90155 30.6267C7.91821 30.51 7.36155 30.2933 6.92988 29.9567C6.49655 29.6183 6.15155 29.13 5.79988 28.2067C5.43655 27.25 5.11488 25.97 4.65155 24.1233C3.92821 21.2233 3.41988 19.1833 3.26155 17.6233C3.10655 16.0967 3.31655 15.2867 3.78155 14.6917Z" fill="#FCFCFC"/>
</svg>
