<svg width="33" height="32" viewBox="0 0 33 32" fill="none" xmlns="http://www.w3.org/2000/svg">
<g id="lucide:circle-help">
<g id="Group">
<path id="Vector" d="M16.4603 29.3334C23.8241 29.3334 29.7936 23.3638 29.7936 16C29.7936 8.63622 23.8241 2.66669 16.4603 2.66669C9.09649 2.66669 3.12695 8.63622 3.12695 16C3.12695 23.3638 9.09649 29.3334 16.4603 29.3334Z" stroke="#FCFCFC" stroke-width="2" stroke-linecap="round" stroke-linejoin="round"/>
<path id="Vector_2" d="M12.5801 12C12.8936 11.1089 13.5123 10.3575 14.3267 9.87887C15.1411 9.40024 16.0986 9.22528 17.0296 9.38498C17.9607 9.54467 18.8052 10.0287 19.4135 10.7514C20.0219 11.4741 20.3548 12.3887 20.3534 13.3334C20.3534 16 16.3534 17.3334 16.3534 17.3334M16.4601 22.6667H16.4734" stroke="#FCFCFC" stroke-width="2" stroke-linecap="round" stroke-linejoin="round"/>
</g>
</g>
</svg>
