<svg width="24" height="25" viewBox="0 0 24 25" fill="none" xmlns="http://www.w3.org/2000/svg">
<g id="heart">
<path id="Icon" fill-rule="evenodd" clip-rule="evenodd" d="M11.9929 4.21703C9.65298 2.17214 6.19252 1.75369 3.50521 4.04978C0.598423 6.5334 0.176093 10.7162 2.47471 13.6741C3.51793 15.0165 5.76496 17.183 7.68698 18.9632C8.66084 19.8652 9.57226 20.6871 10.24 21.2833C10.574 21.5815 10.8473 21.8235 11.0373 21.9911C11.1324 22.075 11.2066 22.1402 11.2572 22.1846L11.3339 22.2518L11.3349 22.2527C11.335 22.2528 11.3353 22.2531 11.9933 21.5L11.3349 22.2527L11.9933 22.828L12.6512 22.2531L11.9933 21.5C12.6512 22.2531 12.6512 22.2531 12.6512 22.2531L12.7294 22.1846C12.78 22.1402 12.8542 22.075 12.9492 21.9911C13.1392 21.8235 13.4126 21.5815 13.7465 21.2833C14.4143 20.6871 15.3257 19.8652 16.2996 18.9632C18.2216 17.183 20.4686 15.0165 21.5118 13.6741C23.8016 10.7276 23.4445 6.5125 20.4709 4.04101C17.7537 1.78258 14.3301 2.17136 11.9929 4.21703ZM11.9933 20.1664C11.8675 20.0548 11.7264 19.9292 11.572 19.7914C10.9105 19.2007 10.0085 18.3873 9.04603 17.4959C7.09537 15.6891 4.97793 13.6358 4.05392 12.4468C2.41807 10.3418 2.7011 7.36745 4.80441 5.57033C6.818 3.84987 9.52828 4.2925 11.2333 6.28587L11.9933 7.17428L12.7532 6.28587C14.4507 4.30131 17.1256 3.86117 19.1925 5.5791C21.3152 7.34332 21.5773 10.3305 19.9326 12.4468C19.0086 13.6358 16.8912 15.6891 14.9405 17.4959C13.978 18.3873 13.0761 19.2007 12.4145 19.7914C12.2602 19.9292 12.119 20.0548 11.9933 20.1664Z" fill="#FCFCFC"/>
<path id="Vector 7" d="M7.73492 14.602C8.6587 13.6782 9.98783 13.2458 11.2482 12.9938C11.3977 12.9639 11.5773 12.9908 11.7207 12.9498C11.7717 12.9352 11.7625 12.8407 11.8233 12.8069C12.2428 12.5739 12.7342 12.1588 12.8857 11.7042C12.9139 11.6196 13.0134 11.6536 12.9114 11.631C12.8018 11.6066 12.7551 11.5124 12.6293 11.5027C12.3665 11.4825 12.0942 11.0846 11.9332 10.9129C11.7795 10.749 11.6379 10.6055 11.6255 10.3817C11.6205 10.2918 11.5377 10.338 11.4936 10.2828C11.4485 10.2264 11.4355 10.1202 11.3837 10.0813C11.2535 9.9837 11.1847 9.9035 11.098 9.75162C10.9702 9.52812 10.8535 9.56091 10.6364 9.50983C10.2069 9.40878 9.89769 9.30032 10.1125 8.79912C10.148 8.71622 10.4468 8.43879 10.2261 8.40347C10.0442 8.37437 9.73894 7.82075 9.59594 7.66345C9.47136 7.52641 9.42751 7.39848 9.21861 7.35206C9.09024 7.32354 8.89135 7.40294 8.78632 7.31543C8.5055 7.0814 7.18421 6.8074 6.89233 7.09928C6.76964 7.22197 6.48202 7.60267 6.48202 7.77702C6.48202 8.24324 6.15231 8.58328 6.15231 8.99695C6.15231 9.43222 6.10619 9.89144 6.22192 10.3158C6.28401 10.5435 6.35014 10.6729 6.35014 10.9093C6.35014 11.0705 6.51181 11.9923 6.18162 11.4734C5.98598 11.166 6.17739 10.7801 6.02043 10.4477C5.89764 10.1877 5.77082 10.0531 5.62111 9.82855C5.53028 9.6923 5.3465 9.688 5.2914 9.49517C5.25247 9.3589 5.16318 9.36067 5.16318 9.18012C5.16318 8.99609 5.11973 8.74013 5.19615 8.57199C5.25524 8.44201 5.2703 8.11729 5.37566 8.02247C5.46198 7.94479 5.66363 7.9875 5.77131 7.89059C5.97256 7.70946 6.31141 7.57223 6.56262 7.49494C6.95809 7.37325 7.38938 7.48737 7.77155 7.3484C7.90924 7.29833 8.19851 7.19895 8.27711 7.08463C8.34334 6.98829 8.42218 6.83655 8.49325 6.75126C8.69269 6.51193 8.36349 6.08177 8.69474 5.88302C8.73824 5.85692 8.60417 5.91034 8.55553 6.01491C8.45462 6.23186 8.31647 6.42619 8.23315 6.65234C8.12476 6.94653 7.9965 7.27959 7.83383 7.55355C7.67347 7.82363 7.59434 8.13437 7.50412 8.43278C7.42237 8.7032 7.27044 8.95175 7.22204 9.23141C7.13162 9.7538 7.36994 9.92203 7.65432 10.3158C7.84431 10.5788 7.90942 11.0265 7.96571 11.3306C8.04634 11.7659 8.14848 11.9677 8.37968 12.3453C8.59069 12.69 8.77825 13.0214 9.0391 13.3345C9.22797 13.5611 9.47103 13.7936 9.57396 14.0781C9.62692 14.2245 9.58923 14.4138 9.61426 14.569C9.65656 14.8313 9.64723 15.0956 9.64723 15.3603C9.64723 15.4574 9.81453 15.7139 9.87437 15.8036C10.0335 16.0424 10.2467 16.2416 10.4239 16.463C10.5795 16.6576 10.9352 16.7554 11.1602 16.9429C11.4288 17.1667 11.3616 17.3544 11.4313 17.6683C11.5105 18.0248 11.7321 17.8144 11.9552 17.7013C12.4753 17.4375 13.0881 17.3118 13.5891 17.0272C13.8921 16.855 14.0676 16.5093 14.1972 16.2176C14.3022 15.9815 14.5929 15.9182 14.5929 15.6571" stroke="white" stroke-width="5" stroke-linecap="round"/>
<path id="Vector 8" d="M16.5712 8.73311C16.7604 8.69108 17.1019 8.06261 17.1867 7.90518C17.3477 7.60617 17.7043 7.53281 17.9486 7.31903C18.1849 7.11229 17.9417 7.42059 17.8681 7.51685C17.7307 7.69649 17.6111 7.74399 17.3955 7.74399C17.2407 7.74399 17.1462 7.8124 17.0328 7.9125C16.9777 7.9611 16.8146 7.80993 16.736 7.80993C16.3407 7.80993 15.9158 7.87604 15.5528 7.71102C15.373 7.62929 15.2633 7.71097 15.1534 7.51319C15.083 7.38637 15.0994 7.17161 15.2011 7.06991C15.4383 6.83266 15.8236 7.02849 16.1096 6.90139C16.1927 6.86447 16.5419 6.76699 16.2745 6.8904C16.0066 7.01405 15.7298 7.30211 15.5161 7.50953C15.3668 7.65447 15.2353 7.74399 15.0216 7.74399C14.8961 7.74399 14.7189 7.70134 14.6442 7.80993C14.5703 7.9175 14.2612 7.96087 14.1313 8.02241C14.0048 8.08233 13.5922 8.13582 13.7137 8.06637C13.8117 8.0104 14.2427 7.74886 14.3145 7.95647C14.3942 8.18671 14.3292 8.52373 14.3292 8.76609C14.3292 8.88165 14.5021 9.1247 14.5783 9.20936C14.728 9.37568 14.7826 9.61385 14.897 9.79185C15.0813 10.0785 15.4173 10.6968 15.7469 10.8433C15.9488 10.933 16.1311 11.2435 16.1902 11.4367C16.2165 11.5227 16.3792 11.867 16.4759 11.8947C16.6552 11.9459 16.6155 12.1112 16.7177 12.2134C16.8157 12.3113 16.9789 12.3526 17.0291 12.5284C17.1922 13.0992 17.4114 12.4429 17.6263 12.228C18.0074 11.8469 18.5303 11.6245 18.9744 11.3708C19.092 11.3036 19.0369 11.1436 19.1466 11.107C19.3706 11.0324 19.2636 10.8521 19.4067 10.7627C19.596 10.6444 19.7297 10.0381 19.7364 9.81749C19.751 9.33608 19.8389 9.16534 19.4726 8.79906C19.1616 8.488 18.8977 8.20355 18.5055 7.97112C18.3614 7.88575 18.2754 7.91649 18.1538 7.78062C18.0729 7.69025 17.8712 7.46001 17.8241 7.37764C17.691 7.14479 17.5997 6.93596 17.4284 6.72189C17.1837 6.41592 16.757 6.7182 16.5675 6.8904C16.318 7.11723 16.072 7.39994 15.9264 7.70735C15.8336 7.90327 15.8903 8.1316 15.7726 8.30816C15.5989 8.5687 15.5399 8.80604 15.4392 9.10312C15.2983 9.51889 15.0765 9.90273 14.9263 10.3157C14.7755 10.7305 14.6383 11.1163 14.5416 11.5393C14.4328 12.0154 14.661 12.3482 14.842 12.7556C14.9317 12.9574 15.0517 12.8903 15.1571 13.056C15.2455 13.1949 15.3716 13.4472 15.5161 13.5322C15.7188 13.6514 15.9763 13.9977 16.1389 14.1733C16.1642 14.2007 16.5948 14.6331 16.4247 14.5873C16.0427 14.4845 15.737 14.2678 15.3806 14.1074C15.1229 13.9914 14.8257 13.9982 14.549 13.9755C13.9157 13.9236 13.2912 13.7802 12.6586 13.7447C11.9751 13.7063 11.3354 13.1796 10.7353 12.8948C9.86314 12.4809 8.86884 12.449 7.98409 12.0815C7.40816 11.8423 6.78211 11.7021 6.22198 11.4367C5.98907 11.3264 5.63394 11.12 5.36107 11.107C5.20916 11.0998 4.94005 11.1027 4.80422 11.1803C4.71034 11.2339 4.69087 11.5242 4.76759 11.3708" stroke="white" stroke-width="5" stroke-linecap="round"/>
<path id="Vector 9" d="M6.95263 5.92232C6.79064 5.92232 6.65096 5.81921 6.50919 5.75249C6.38032 5.69185 6.20118 5.66016 6.06104 5.62512" stroke="white" stroke-width="5" stroke-linecap="round"/>
</g>
</svg>
