<svg width="21" height="20" viewBox="0 0 21 20" fill="none" xmlns="http://www.w3.org/2000/svg">
<g id="mdi:coupon-outline">
<path id="Vector" d="M12.3727 6.66671L13.3727 7.66671L7.70605 13.3334L6.70605 12.3334L12.3727 6.66671ZM3.37272 3.33337H16.7061C17.6311 3.33337 18.3727 4.07504 18.3727 5.00004V8.33337C17.9307 8.33337 17.5068 8.50897 17.1942 8.82153C16.8816 9.13409 16.7061 9.55801 16.7061 10C16.7061 10.4421 16.8816 10.866 17.1942 11.1786C17.5068 11.4911 17.9307 11.6667 18.3727 11.6667V15C18.3727 15.925 17.6311 16.6667 16.7061 16.6667H3.37272C2.93069 16.6667 2.50677 16.4911 2.19421 16.1786C1.88165 15.866 1.70605 15.4421 1.70605 15V11.6667C2.63105 11.6667 3.37272 10.925 3.37272 10C3.37272 9.55801 3.19713 9.13409 2.88457 8.82153C2.57201 8.50897 2.14808 8.33337 1.70605 8.33337V5.00004C1.70605 4.55801 1.88165 4.13409 2.19421 3.82153C2.50677 3.50897 2.93069 3.33337 3.37272 3.33337ZM3.37272 5.00004V7.11671C3.87912 7.40871 4.29968 7.82893 4.5921 8.33508C4.88452 8.84124 5.03847 9.41549 5.03847 10C5.03847 10.5846 4.88452 11.1588 4.5921 11.665C4.29968 12.1712 3.87912 12.5914 3.37272 12.8834V15H16.7061V12.8834C16.1997 12.5914 15.7791 12.1712 15.4867 11.665C15.1943 11.1588 15.0403 10.5846 15.0403 10C15.0403 9.41549 15.1943 8.84124 15.4867 8.33508C15.7791 7.82893 16.1997 7.40871 16.7061 7.11671V5.00004H3.37272ZM7.95605 6.66671C8.64772 6.66671 9.20605 7.22504 9.20605 7.91671C9.20605 8.60837 8.64772 9.16671 7.95605 9.16671C7.26439 9.16671 6.70605 8.60837 6.70605 7.91671C6.70605 7.22504 7.26439 6.66671 7.95605 6.66671ZM12.1227 10.8334C12.8144 10.8334 13.3727 11.3917 13.3727 12.0834C13.3727 12.775 12.8144 13.3334 12.1227 13.3334C11.4311 13.3334 10.8727 12.775 10.8727 12.0834C10.8727 11.3917 11.4311 10.8334 12.1227 10.8334Z" fill="#FCFCFC"/>
</g>
</svg>
