<svg width="33" height="32" viewBox="0 0 33 32" fill="none" xmlns="http://www.w3.org/2000/svg">
<g id="hugeicons:repair">
<g id="Group">
<path id="Vector" d="M15.1272 14.6667L8.46053 8.00001M7.1272 10L10.4605 6.66668L6.46053 4.66668L5.1272 6.00001L7.1272 10ZM27.0939 11.9667C27.734 11.3271 28.1744 10.5152 28.3614 9.62984C28.5484 8.74448 28.474 7.82384 28.1472 6.98001L26.2512 8.87601H23.5845V6.20934L25.4805 4.31334C24.6366 3.9858 23.7157 3.91076 22.8299 4.09737C21.9442 4.28397 21.1318 4.72417 20.4918 5.36433C19.8517 6.00449 19.4117 6.81698 19.2253 7.7028C19.0389 8.58862 19.1141 9.50953 19.4419 10.3533L10.8152 18.9813C9.97138 18.6536 9.05047 18.5784 8.16465 18.7648C7.27883 18.9512 6.46634 19.3912 5.82619 20.0312C5.18603 20.6712 4.74583 21.4836 4.55922 22.3694C4.37261 23.2552 4.44765 24.1761 4.7752 25.02L6.66986 23.124H9.33653V25.7907L7.44053 27.6867C8.2842 28.0142 9.20491 28.0894 10.0905 27.903C10.9762 27.7166 11.7885 27.2767 12.4286 26.6369C13.0687 25.9971 13.5089 25.185 13.6957 24.2994C13.8824 23.4139 13.8077 22.4932 13.4805 21.6493L22.1099 13.02C22.9533 13.3463 23.8734 13.4204 24.7583 13.2334C25.6431 13.0464 26.4545 12.6063 27.0939 11.9667Z" stroke="#FCFCFC" stroke-width="1.5" stroke-linecap="round" stroke-linejoin="round"/>
<path id="Vector_2" d="M16.1895 19.3334L23.6615 26.8054C23.8286 26.9729 24.0272 27.1058 24.2458 27.1964C24.4644 27.2871 24.6988 27.3338 24.9355 27.3338C25.1721 27.3338 25.4065 27.2871 25.6251 27.1964C25.8437 27.1058 26.0423 26.9729 26.2095 26.8054L27.2655 25.7494C27.433 25.5822 27.5659 25.3836 27.6565 25.165C27.7472 24.9464 27.7939 24.712 27.7939 24.4754C27.7939 24.2387 27.7472 24.0044 27.6565 23.7857C27.5659 23.5671 27.433 23.3686 27.2655 23.2014L19.7935 15.7294" stroke="#FCFCFC" stroke-width="1.5" stroke-linecap="round" stroke-linejoin="round"/>
</g>
</g>
</svg>
