<svg width="24" height="24" viewBox="0 0 24 24" fill="none" xmlns="http://www.w3.org/2000/svg">
<g id="star">
<path id="Icon" fill-rule="evenodd" clip-rule="evenodd" d="M12.0002 1L15.1454 8.78028L23.4276 9.29244L17.2155 14.9266L19.3144 22.7142L12.0001 18.5787L4.68553 22.7141L6.7844 14.9266L0.572266 9.29244L8.85456 8.78028L12.0002 1ZM12 6.33607L10.2362 10.6987L5.42761 10.996L9.03366 14.2666L7.8598 18.622L12.0001 16.2812L16.1401 18.6219L14.9662 14.2666L18.5723 10.996L13.7636 10.6987L12 6.33607Z" fill="#FCFCFC"/>
<path id="Vector 2" d="M5.51221 11.0235C6.59346 11.0235 7.61313 11.1316 8.69942 11.0447C9.74433 10.9611 10.1316 10.8796 10.5823 9.97824C10.6876 9.7676 10.7047 9.46854 10.7185 9.23448C10.7208 9.19539 10.9883 8.90192 11.0357 8.81235C11.1725 8.55383 11.1369 8.56743 11.0491 8.85479C10.5527 10.4792 10.4422 12.444 10.3958 14.1169C10.3591 15.4378 10.1947 17.01 8.79323 17.4605C8.70843 17.4877 8.20582 17.8958 8.20582 17.9697C8.20582 18.107 8.10734 18.2001 8.045 18.3092C8.0093 18.3717 8.07575 18.2506 8.07962 18.2444C8.27351 17.9357 8.53282 17.8225 8.85912 17.6615C9.17927 17.5035 9.63981 17.1746 10.015 17.1746C10.1 17.1746 9.68261 17.3181 9.58836 17.3555C9.00478 17.5872 8.60583 17.9153 8.08967 18.2199C7.81368 18.3828 7.79895 18.4759 7.9847 18.0993C8.28047 17.4995 8.72008 16.9866 8.86917 16.3281C9.07812 15.4052 9.39732 14.5887 9.51688 13.6323C9.59318 13.0219 9.61755 12.4062 9.6978 11.7963C9.84566 10.6726 9.6977 12.671 9.68328 12.9622C9.62273 14.1854 9.01715 17.7711 9.46105 16.6296C9.60336 16.2637 9.49239 15.6549 9.42978 15.2862C9.20352 13.9537 8.94914 12.6552 8.83008 11.3027C8.71071 9.9466 8.80661 11.9476 8.8245 12.2855C8.83445 12.4734 8.85444 14.1434 8.62348 13.5139C8.41782 12.9533 8.20435 12.3969 7.94896 11.8566C7.89587 11.7443 7.94339 12.7647 7.98023 12.9801C8.08744 13.6068 7.81004 12.6986 7.68318 12.4999C7.57572 12.3316 7.14614 11.5501 7.32581 12.1626C7.45617 12.607 7.7548 13.1283 7.22754 12.5624C7.07127 12.3947 6.63293 12.0816 6.57871 11.8376C6.56357 11.7695 6.8952 12.0152 6.72388 11.9046C6.52357 11.7754 6.21695 11.6979 6.06612 11.506C6.04757 11.4824 7.26257 11.6606 7.56145 11.6969C7.78581 11.7242 9.06686 11.6704 8.62683 11.9404C8.19653 12.2044 8.86634 13.5479 7.91993 12.2229C7.82249 12.0865 7.87 11.8527 7.98917 12.0442C8.19685 12.378 8.50586 12.6563 8.72399 12.989C9.05993 13.5014 10.015 14.327 10.015 14.9757C10.015 15.1927 10.3067 16.0719 10.4527 16.2544C10.6374 16.4852 10.2792 16.7927 10.6984 16.7927C10.9939 16.7927 11.0175 16.6098 11.1909 16.471C11.2847 16.396 11.645 15.6202 11.4522 15.466M11.3807 13.8377C10.9541 14.6057 10.6944 14.9314 10.9597 15.7273" stroke="#FCFCFC" stroke-linecap="round"/>
<path id="Vector 3" d="M11.1006 8.67164C11.1006 8.27465 11.2805 7.75728 11.4669 7.40524C11.5831 7.18581 11.7544 6.45951 11.6433 6.68159" stroke="#FCFCFC" stroke-linecap="round"/>
<line id="Line 1" x1="11" y1="6" x2="11" y2="16" stroke="#FCFCFC" stroke-width="2"/>
</g>
</svg>
