<svg width="33" height="32" viewBox="0 0 33 32" fill="none" xmlns="http://www.w3.org/2000/svg">
<g id="ph:vinyl-record-light">
<path id="Vector" d="M16.4609 3.25C13.9392 3.25 11.4741 3.99777 9.37742 5.39876C7.2807 6.79975 5.6465 8.79103 4.68148 11.1208C3.71646 13.4505 3.46397 16.0141 3.95593 18.4874C4.44789 20.9607 5.66221 23.2325 7.44533 25.0156C9.22845 26.7987 11.5003 28.0131 13.9735 28.505C16.4468 28.997 19.0104 28.7445 21.3402 27.7795C23.6699 26.8144 25.6612 25.1802 27.0622 23.0835C28.4632 20.9868 29.2109 18.5217 29.2109 16C29.207 12.6197 27.8624 9.379 25.4722 6.98877C23.0819 4.59854 19.8412 3.25397 16.4609 3.25ZM16.4609 27.25C14.2359 27.25 12.0608 26.5902 10.2108 25.354C8.36073 24.1179 6.91878 22.3609 6.0673 20.3052C5.21581 18.2495 4.99303 15.9875 5.42711 13.8052C5.86119 11.6229 6.93265 9.61839 8.50599 8.04505C10.0793 6.47171 12.0839 5.40025 14.2662 4.96617C16.4485 4.53208 18.7105 4.75487 20.7661 5.60636C22.8218 6.45784 24.5788 7.89978 25.815 9.74984C27.0511 11.5999 27.7109 13.775 27.7109 16C27.7076 18.9827 26.5213 21.8422 24.4122 23.9513C22.3032 26.0604 19.4436 27.2467 16.4609 27.25ZM16.4609 8.75C14.5388 8.75232 12.6961 9.5169 11.337 10.876C9.97784 12.2352 9.21326 14.0779 9.21094 16C9.21094 16.1989 9.13193 16.3897 8.99127 16.5303C8.85062 16.671 8.65986 16.75 8.46094 16.75C8.26203 16.75 8.07127 16.671 7.93061 16.5303C7.78996 16.3897 7.71094 16.1989 7.71094 16C7.71359 13.6802 8.63631 11.4561 10.2767 9.81574C11.9171 8.17537 14.1411 7.25265 16.4609 7.25C16.6599 7.25 16.8506 7.32902 16.9913 7.46967C17.1319 7.61032 17.2109 7.80109 17.2109 8C17.2109 8.19891 17.1319 8.38968 16.9913 8.53033C16.8506 8.67098 16.6599 8.75 16.4609 8.75ZM25.2109 16C25.2083 18.3198 24.2856 20.5439 22.6452 22.1843C21.0048 23.8246 18.7808 24.7474 16.4609 24.75C16.262 24.75 16.0713 24.671 15.9306 24.5303C15.79 24.3897 15.7109 24.1989 15.7109 24C15.7109 23.8011 15.79 23.6103 15.9306 23.4697C16.0713 23.329 16.262 23.25 16.4609 23.25C18.3831 23.2477 20.2258 22.4831 21.5849 21.124C22.944 19.7648 23.7086 17.9221 23.7109 16C23.7109 15.8011 23.79 15.6103 23.9306 15.4697C24.0713 15.329 24.262 15.25 24.4609 15.25C24.6599 15.25 24.8506 15.329 24.9913 15.4697C25.1319 15.6103 25.2109 15.8011 25.2109 16ZM20.2109 16C20.2109 15.2583 19.991 14.5333 19.579 13.9166C19.1669 13.2999 18.5812 12.8193 17.896 12.5355C17.2108 12.2516 16.4568 12.1774 15.7294 12.3221C15.0019 12.4667 14.3337 12.8239 13.8093 13.3483C13.2848 13.8728 12.9277 14.541 12.783 15.2684C12.6383 15.9958 12.7126 16.7498 12.9964 17.4351C13.2802 18.1203 13.7609 18.706 14.3776 19.118C14.9942 19.5301 15.7193 19.75 16.4609 19.75C17.4555 19.75 18.4093 19.3549 19.1126 18.6517C19.8159 17.9484 20.2109 16.9946 20.2109 16ZM14.2109 16C14.2109 15.555 14.3429 15.12 14.5901 14.75C14.8374 14.38 15.1888 14.0916 15.5999 13.9213C16.011 13.751 16.4634 13.7064 16.8999 13.7932C17.3364 13.88 17.7373 14.0943 18.0519 14.409C18.3666 14.7237 18.5809 15.1246 18.6677 15.561C18.7545 15.9975 18.71 16.4499 18.5397 16.861C18.3694 17.2722 18.081 17.6236 17.711 17.8708C17.341 18.118 16.906 18.25 16.4609 18.25C15.8642 18.25 15.2919 18.0129 14.87 17.591C14.448 17.169 14.2109 16.5967 14.2109 16Z" fill="#FCFCFC"/>
</g>
</svg>
